<?xml version="1.0" encoding="utf-8"?>
<!-- Generator: Adobe Illustrator 23.0.1, SVG Export Plug-In . SVG Version: 6.00 Build 0)  -->
<svg version="1.1" id="Layer_1" xmlns="http://www.w3.org/2000/svg" xmlns:xlink="http://www.w3.org/1999/xlink" x="0px" y="0px"
	 viewBox="0 0 1000 793.9" style="enable-background:new 0 0 1000 793.9;" xml:space="preserve">
<g>
	<path d="M686.8,397L262.3,755.4c-4.5,3.6-7.3,8.4-7.3,13.9c0,10.8,11.1,19.6,24.4,19.6c6.7,0,13-2.2,17.3-5.8l440.9-372.4
		c4.6-3.7,7.4-8.6,7.4-13.8c0-5.3-2.8-10.3-7.3-13.9l-441-372.5C292.4,7.2,286.3,5,279.5,5C266.1,5,255,13.8,255,24.5
		c0,5.5,2.9,10.3,7.3,13.9L686.8,397z"/>
</g>
</svg>
